 http://img692.imageshack.us/img692/5346/thevillage2004n.jpg

Country.......: USA
Genre.........: Drama, Thriller
Date release..: 26.07.2004 [World]
Director......: M. Night Shyamalan
Writers.......: M. Night Shyamalan
Duration......: 103 min.
More..........: http://www.imdb.com/title/tt0368447
Trailer.......: http://www.imdb.com/video/screenplay/vi68092697
Trailer.......:

Pilot :
The population of a small, isolated countryside village believe that their alliance with the mysterious creatures that inhabit the forest around them is coming to an end. 

Cats :
Bryce Dallas Howard   	 ...  	Ivy Walker
Joaquin Phoenix 	... 	Lucius Hunt
Adrien Brody 	... 	Noah Percy
William Hurt 	... 	Edward Walker
Sigourney Weaver 	... 	Alice Hunt
Brendan Gleeson 	... 	August Nicholson
Cherry Jones 	... 	Mrs. Clack
Celia Weston 	... 	Vivian Percy
John Christopher Jones 	... 	Robert Percy
Frank Collison 	... 	Victor
Jayne Atkinson 	... 	Tabitha Walker
Judy Greer 	... 	Kitty Walker
Fran Kranz 	... 	Christop Crane
Michael Pitt 	... 	Finton Coin
Jesse Eisenberg 	... 	Jamison 

Data Technical :
!!! SAMPLE !!!
Audio.....: Lector Polish
Subtitles.: None
Format                           : AVI
Format/Info                      : Audio Video Interleave
File size                        : 698 MiB
Duration                         : 1h 43mn
Overall bit rate                 : 944 Kbps
Writing application              : Nandub v1.0rc2
Writing library                  : Nandub build 1852/release
Video
ID                               : 0
Format                           : MPEG-4 Visual
Format profile                   : Advanced Simple@L5
Format settings, BVOP            : Yes
Format settings, QPel            : No
Format settings, GMC             : No warppoints
Format settings, Matrix          : Default (H.263)
Codec ID                         : XVID
Codec ID/Hint                    : XviD
Duration                         : 1h 43mn
Bit rate                         : 815 Kbps
Width                            : 592 pixels
Height                           : 320 pixels
Display aspect ratio             : 2.691
Frame rate                       : 25.000 fps
Color space                      : YUV
Chroma subsampling               : 4:2:0
Bit depth                        : 8 bits
Scan type                        : Progressive
Bits/(Pixel*Frame)               : 0.172
Stream size                      : 603 MiB (86%)
Writing library                  : XviD 1.0.3 (UTC 2004-12-20)
Audio
ID                               : 1
Format                           : MPEG Audio
Format version                   : Version 1
Format profile                   : Layer 3
Mode                             : Joint stereo
Codec ID                         : 55
Codec ID/Hint                    : MP3
Duration                         : 1h 43mn
Bit rate mode                    : Variable
Bit rate                         : 116 Kbps
Nominal bit rate                 : 128 Kbps
Channel(s)                       : 2 channels
Sampling rate                    : 48.0 KHz
Stream size                      : 86.0 MiB (12%)
Alignment                        : Aligned on interleaves
Interleave, duration             : 24 ms (0.60 video frame)
Interleave, preload duration     : 429 ms
Writing library                  : LAME3.90.
Encoding settings                : -m j -V 0 -q 5 -lowpass 15.3 --abr 128

Screen : 
http://img821.imageshack.us/img821/1773/thevillage2004s1.jpg 
http://img163.imageshack.us/img163/5751/thevillage2004s2.jpg 
http://img827.imageshack.us/img827/9713/thevillage2004s3.jpg 
http://img27.imageshack.us/img27/3033/thevillage2004s4.jpg 
http://img810.imageshack.us/img810/3173/thevillage2004s5.jpg